<?xml version="1.0" encoding="UTF-8"?>
<svg xmlns="http://www.w3.org/2000/svg" version="1.1" viewBox="0 0 512 512">
  <defs>
    <style>
      .cls-1 {
        fill: #fff;
      }
    </style>
  </defs>
  <!-- Generator: Adobe Illustrator 28.7.3, SVG Export Plug-In . SVG Version: 1.2.0 Build 164)  -->
  <g>
    <g id="Capa_1">
      <g id="Layer_1">
        <path class="cls-1" d="M449.7,177c-2.9,2.3-55,31.6-55,96.8s66.2,102.1,68.2,102.8c-.3,1.6-10.5,36.5-34.9,72.1-21.8,31.3-44.5,62.6-79,62.6s-43.5-20.1-83.4-20.1-52.7,20.8-84.3,20.8-53.7-29-79-64.6c-29.4-41.8-53.1-106.7-53.1-168.3,0-98.8,64.2-151.2,127.5-151.2s61.6,22,82.7,22,51.4-23.4,89.6-23.4,66.6,1.3,100.8,50.4h0ZM330.7,84.8c15.8-18.8,27-44.8,27-70.8s-.3-7.3-1-10.2c-25.7,1-56.3,17.1-74.8,38.5-14.5,16.5-28,42.5-28,68.9s.7,7.9,1,9.2c1.6.3,4.3.7,6.9.7,23.1,0,52.1-15.4,68.9-36.2h0Z"/>
      </g>
    </g>
  </g>
</svg>