<?xml version="1.0" encoding="UTF-8"?>
<svg xmlns="http://www.w3.org/2000/svg" version="1.1" viewBox="0 0 1080 1080">
  <defs>
    <style>
      .cls-1 {
        fill: #fff;
      }
    </style>
  </defs>
  <!-- Generator: Adobe Illustrator 28.7.3, SVG Export Plug-In . SVG Version: 1.2.0 Build 164)  -->
  <g>
    <g id="Layer_1">
      <path class="cls-1" d="M947.7,369.8c-6.2,4.8-115.8,66.6-115.8,203.8s139.4,215,143.6,216.4c-.6,3.4-22.1,76.9-73.5,151.8-45.8,65.9-93.6,131.7-166.4,131.7s-91.5-42.3-175.5-42.3-111,43.7-177.5,43.7-113-61-166.4-135.9c-61.8-88-111.8-224.6-111.8-354.3,0-208,135.2-318.3,268.4-318.3s129.7,46.4,174.1,46.4,108.2-49.2,188.6-49.2,140.1,2.8,212.2,106.1h0ZM697.3,175.6c33.3-39.5,56.8-94.3,56.8-149s-.6-15.3-2-21.5c-54.1,2-118.6,36.1-157.4,81.1-30.5,34.7-59,89.5-59,145s1.4,16.7,2,19.4c3.4.6,9,1.4,14.6,1.4,48.6,0,109.7-32.5,145-76.3h0Z"/>
    </g>
  </g>
</svg>